<mxfile host="app.diagrams.net" agent="Mozilla/5.0 (Windows NT 10.0; Win64; x64) AppleWebKit/537.36 (KHTML, like Gecko) Chrome/135.0.0.0 Safari/537.36" version="26.2.9">
  <diagram name="Page-1" id="pGc_o5oU0INXMLFuIHO4">
    <mxGraphModel dx="3549" dy="1058" grid="1" gridSize="10" guides="1" tooltips="1" connect="1" arrows="1" fold="1" page="1" pageScale="1" pageWidth="827" pageHeight="1169" math="0" shadow="0">
      <root>
        <mxCell id="0" />
        <mxCell id="1" parent="0" />
        <mxCell id="k-KtFEmayB6VyQOIX7gF-31" value="" style="html=1;dropTarget=0;whiteSpace=wrap;" parent="1" vertex="1">
          <mxGeometry x="-276" y="380" width="1160" height="1070" as="geometry" />
        </mxCell>
        <mxCell id="k-KtFEmayB6VyQOIX7gF-91" style="rounded=0;orthogonalLoop=1;jettySize=auto;html=1;" parent="1" target="k-KtFEmayB6VyQOIX7gF-50" edge="1">
          <mxGeometry relative="1" as="geometry">
            <mxPoint x="980" y="620" as="sourcePoint" />
          </mxGeometry>
        </mxCell>
        <mxCell id="k-KtFEmayB6VyQOIX7gF-92" style="rounded=0;orthogonalLoop=1;jettySize=auto;html=1;" parent="1" target="k-KtFEmayB6VyQOIX7gF-53" edge="1">
          <mxGeometry relative="1" as="geometry">
            <mxPoint x="980" y="620" as="sourcePoint" />
          </mxGeometry>
        </mxCell>
        <mxCell id="k-KtFEmayB6VyQOIX7gF-20" value="&lt;h1&gt;Libraries&lt;/h1&gt;" style="shape=umlActor;verticalLabelPosition=bottom;verticalAlign=top;html=1;" parent="1" vertex="1">
          <mxGeometry x="980" y="490" width="125" height="200" as="geometry" />
        </mxCell>
        <mxCell id="k-KtFEmayB6VyQOIX7gF-88" style="rounded=0;orthogonalLoop=1;jettySize=auto;html=1;endArrow=none;startFill=0;" parent="1" source="k-KtFEmayB6VyQOIX7gF-21" target="k-KtFEmayB6VyQOIX7gF-48" edge="1">
          <mxGeometry relative="1" as="geometry" />
        </mxCell>
        <mxCell id="k-KtFEmayB6VyQOIX7gF-21" value="&lt;h1&gt;Library&lt;/h1&gt;&lt;h1&gt;Database&lt;/h1&gt;" style="shape=umlActor;verticalLabelPosition=bottom;verticalAlign=top;html=1;" parent="1" vertex="1">
          <mxGeometry x="990" y="1119" width="130" height="201" as="geometry" />
        </mxCell>
        <mxCell id="k-KtFEmayB6VyQOIX7gF-86" style="rounded=0;orthogonalLoop=1;jettySize=auto;html=1;" parent="1" source="k-KtFEmayB6VyQOIX7gF-34" edge="1">
          <mxGeometry relative="1" as="geometry">
            <mxPoint x="-390" y="620" as="targetPoint" />
          </mxGeometry>
        </mxCell>
        <mxCell id="k-KtFEmayB6VyQOIX7gF-34" value="&lt;h2&gt;Reserve a&amp;nbsp;&lt;/h2&gt;&lt;h2&gt;Book&lt;/h2&gt;" style="ellipse;whiteSpace=wrap;html=1;" parent="1" vertex="1">
          <mxGeometry x="-130" y="510" width="220" height="110" as="geometry" />
        </mxCell>
        <mxCell id="k-KtFEmayB6VyQOIX7gF-78" style="rounded=0;orthogonalLoop=1;jettySize=auto;html=1;endArrow=none;startFill=0;" parent="1" source="k-KtFEmayB6VyQOIX7gF-35" edge="1">
          <mxGeometry relative="1" as="geometry">
            <mxPoint x="-390" y="620" as="targetPoint" />
          </mxGeometry>
        </mxCell>
        <mxCell id="k-KtFEmayB6VyQOIX7gF-35" value="&lt;h2&gt;Authenticate&lt;/h2&gt;" style="ellipse;whiteSpace=wrap;html=1;" parent="1" vertex="1">
          <mxGeometry x="-240" y="400" width="220" height="110" as="geometry" />
        </mxCell>
        <mxCell id="k-KtFEmayB6VyQOIX7gF-36" value="&lt;h2&gt;Renew&lt;/h2&gt;&lt;h2&gt;a Book&lt;/h2&gt;" style="ellipse;whiteSpace=wrap;html=1;" parent="1" vertex="1">
          <mxGeometry x="-120" y="650" width="220" height="110" as="geometry" />
        </mxCell>
        <mxCell id="k-KtFEmayB6VyQOIX7gF-81" style="rounded=0;orthogonalLoop=1;jettySize=auto;html=1;endArrow=none;startFill=0;" parent="1" source="k-KtFEmayB6VyQOIX7gF-37" edge="1">
          <mxGeometry relative="1" as="geometry">
            <mxPoint x="-390" y="620" as="targetPoint" />
          </mxGeometry>
        </mxCell>
        <mxCell id="k-KtFEmayB6VyQOIX7gF-37" value="&lt;h2&gt;Pays fine&lt;/h2&gt;" style="ellipse;whiteSpace=wrap;html=1;" parent="1" vertex="1">
          <mxGeometry x="-80" y="770" width="220" height="110" as="geometry" />
        </mxCell>
        <mxCell id="k-KtFEmayB6VyQOIX7gF-83" style="rounded=0;orthogonalLoop=1;jettySize=auto;html=1;endArrow=none;startFill=0;" parent="1" source="k-KtFEmayB6VyQOIX7gF-38" edge="1">
          <mxGeometry relative="1" as="geometry">
            <mxPoint x="-390" y="620" as="targetPoint" />
          </mxGeometry>
        </mxCell>
        <mxCell id="k-KtFEmayB6VyQOIX7gF-109" style="rounded=0;orthogonalLoop=1;jettySize=auto;html=1;endArrow=blockThin;endFill=1;" parent="1" source="k-KtFEmayB6VyQOIX7gF-38" target="k-KtFEmayB6VyQOIX7gF-39" edge="1">
          <mxGeometry relative="1" as="geometry" />
        </mxCell>
        <mxCell id="k-KtFEmayB6VyQOIX7gF-38" value="&lt;h2&gt;Feedback&lt;/h2&gt;" style="ellipse;whiteSpace=wrap;html=1;" parent="1" vertex="1">
          <mxGeometry x="-80" y="890" width="220" height="110" as="geometry" />
        </mxCell>
        <mxCell id="k-KtFEmayB6VyQOIX7gF-84" style="rounded=0;orthogonalLoop=1;jettySize=auto;html=1;endArrow=none;startFill=0;" parent="1" source="k-KtFEmayB6VyQOIX7gF-39" edge="1">
          <mxGeometry relative="1" as="geometry">
            <mxPoint x="-390" y="620" as="targetPoint" />
          </mxGeometry>
        </mxCell>
        <mxCell id="k-KtFEmayB6VyQOIX7gF-39" value="&lt;h2&gt;Filling up&lt;/h2&gt;&lt;h2&gt;feedback form&lt;/h2&gt;" style="ellipse;whiteSpace=wrap;html=1;" parent="1" vertex="1">
          <mxGeometry x="-70" y="1050" width="220" height="110" as="geometry" />
        </mxCell>
        <mxCell id="k-KtFEmayB6VyQOIX7gF-73" style="rounded=0;orthogonalLoop=1;jettySize=auto;html=1;" parent="1" source="k-KtFEmayB6VyQOIX7gF-40" target="k-KtFEmayB6VyQOIX7gF-42" edge="1">
          <mxGeometry relative="1" as="geometry" />
        </mxCell>
        <mxCell id="k-KtFEmayB6VyQOIX7gF-85" style="rounded=0;orthogonalLoop=1;jettySize=auto;html=1;endArrow=none;startFill=0;" parent="1" source="k-KtFEmayB6VyQOIX7gF-40" edge="1">
          <mxGeometry relative="1" as="geometry">
            <mxPoint x="-390" y="620" as="targetPoint" />
          </mxGeometry>
        </mxCell>
        <mxCell id="k-KtFEmayB6VyQOIX7gF-40" value="&lt;h2&gt;Register&lt;/h2&gt;&lt;h2&gt;New user&lt;/h2&gt;" style="ellipse;whiteSpace=wrap;html=1;" parent="1" vertex="1">
          <mxGeometry x="-120" y="1169" width="220" height="110" as="geometry" />
        </mxCell>
        <mxCell id="k-KtFEmayB6VyQOIX7gF-41" value="&lt;h2&gt;Get Library&lt;br&gt;card ID&lt;/h2&gt;" style="ellipse;whiteSpace=wrap;html=1;" parent="1" vertex="1">
          <mxGeometry x="10" y="1320" width="220" height="110" as="geometry" />
        </mxCell>
        <mxCell id="k-KtFEmayB6VyQOIX7gF-42" value="&lt;h2&gt;Fill up&lt;br&gt;registration&lt;br&gt;form&lt;/h2&gt;" style="ellipse;whiteSpace=wrap;html=1;" parent="1" vertex="1">
          <mxGeometry x="-230" y="1310" width="220" height="110" as="geometry" />
        </mxCell>
        <mxCell id="k-KtFEmayB6VyQOIX7gF-75" style="rounded=0;orthogonalLoop=1;jettySize=auto;html=1;" parent="1" source="k-KtFEmayB6VyQOIX7gF-44" target="k-KtFEmayB6VyQOIX7gF-35" edge="1">
          <mxGeometry relative="1" as="geometry" />
        </mxCell>
        <mxCell id="k-KtFEmayB6VyQOIX7gF-44" value="&lt;h2&gt;Invalid username&lt;br&gt;or password&lt;/h2&gt;" style="ellipse;whiteSpace=wrap;html=1;" parent="1" vertex="1">
          <mxGeometry x="230" y="420" width="220" height="110" as="geometry" />
        </mxCell>
        <mxCell id="k-KtFEmayB6VyQOIX7gF-45" value="&lt;h2&gt;Requests&lt;br&gt;new book&lt;/h2&gt;" style="ellipse;whiteSpace=wrap;html=1;" parent="1" vertex="1">
          <mxGeometry x="178.89" y="570" width="220" height="110" as="geometry" />
        </mxCell>
        <mxCell id="k-KtFEmayB6VyQOIX7gF-70" style="rounded=0;orthogonalLoop=1;jettySize=auto;html=1;endArrow=block;endFill=1;" parent="1" source="k-KtFEmayB6VyQOIX7gF-46" target="k-KtFEmayB6VyQOIX7gF-50" edge="1">
          <mxGeometry relative="1" as="geometry" />
        </mxCell>
        <mxCell id="k-KtFEmayB6VyQOIX7gF-46" value="&lt;h2&gt;Invalid ID&lt;/h2&gt;" style="ellipse;whiteSpace=wrap;html=1;rotation=-15;" parent="1" vertex="1">
          <mxGeometry x="270" y="750" width="220" height="110" as="geometry" />
        </mxCell>
        <mxCell id="k-KtFEmayB6VyQOIX7gF-47" value="&lt;h2&gt;Invlid&lt;/h2&gt;&lt;h2&gt;reneva&lt;/h2&gt;" style="ellipse;whiteSpace=wrap;html=1;rotation=30;" parent="1" vertex="1">
          <mxGeometry x="211.11" y="941.6600000000001" width="208.89" height="138.34" as="geometry" />
        </mxCell>
        <mxCell id="k-KtFEmayB6VyQOIX7gF-48" value="&lt;h2&gt;Prepare Library&lt;br&gt;database&lt;/h2&gt;" style="ellipse;whiteSpace=wrap;html=1;" parent="1" vertex="1">
          <mxGeometry x="500" y="1280" width="210" height="120" as="geometry" />
        </mxCell>
        <mxCell id="k-KtFEmayB6VyQOIX7gF-49" value="&lt;h2&gt;Update the&lt;br&gt;record ID&lt;/h2&gt;" style="ellipse;whiteSpace=wrap;html=1;" parent="1" vertex="1">
          <mxGeometry x="510" y="1080" width="220" height="110" as="geometry" />
        </mxCell>
        <mxCell id="k-KtFEmayB6VyQOIX7gF-89" style="rounded=0;orthogonalLoop=1;jettySize=auto;html=1;" parent="1" source="k-KtFEmayB6VyQOIX7gF-50" target="k-KtFEmayB6VyQOIX7gF-49" edge="1">
          <mxGeometry relative="1" as="geometry" />
        </mxCell>
        <mxCell id="k-KtFEmayB6VyQOIX7gF-50" value="&lt;h2&gt;Update book&lt;br&gt;record&lt;/h2&gt;" style="ellipse;whiteSpace=wrap;html=1;" parent="1" vertex="1">
          <mxGeometry x="520" y="880" width="220" height="110" as="geometry" />
        </mxCell>
        <mxCell id="k-KtFEmayB6VyQOIX7gF-51" value="&lt;h2&gt;Delete&lt;br&gt;book record&lt;/h2&gt;" style="ellipse;whiteSpace=wrap;html=1;" parent="1" vertex="1">
          <mxGeometry x="607" y="660" width="220" height="110" as="geometry" />
        </mxCell>
        <mxCell id="k-KtFEmayB6VyQOIX7gF-52" value="&lt;h2&gt;Search and&lt;/h2&gt;&lt;h2&gt;update database&lt;/h2&gt;" style="ellipse;whiteSpace=wrap;html=1;" parent="1" vertex="1">
          <mxGeometry x="420" y="570" width="220" height="110" as="geometry" />
        </mxCell>
        <mxCell id="k-KtFEmayB6VyQOIX7gF-74" style="rounded=0;orthogonalLoop=1;jettySize=auto;html=1;" parent="1" source="k-KtFEmayB6VyQOIX7gF-53" target="k-KtFEmayB6VyQOIX7gF-52" edge="1">
          <mxGeometry relative="1" as="geometry" />
        </mxCell>
        <mxCell id="k-KtFEmayB6VyQOIX7gF-53" value="&lt;h2&gt;Add record&lt;/h2&gt;" style="ellipse;whiteSpace=wrap;html=1;" parent="1" vertex="1">
          <mxGeometry x="560" y="420" width="220" height="110" as="geometry" />
        </mxCell>
        <mxCell id="k-KtFEmayB6VyQOIX7gF-65" style="edgeStyle=orthogonalEdgeStyle;rounded=0;orthogonalLoop=1;jettySize=auto;html=1;endArrow=async;endFill=0;" parent="1" edge="1">
          <mxGeometry relative="1" as="geometry">
            <mxPoint x="-559.9999999999998" y="1040" as="sourcePoint" />
            <mxPoint x="-460" y="810" as="targetPoint" />
            <Array as="points">
              <mxPoint x="-560" y="950" />
              <mxPoint x="-460" y="950" />
            </Array>
          </mxGeometry>
        </mxCell>
        <mxCell id="k-KtFEmayB6VyQOIX7gF-54" value="&lt;h1&gt;&lt;font face=&quot;Helvetica&quot;&gt;Student&lt;/font&gt;&lt;/h1&gt;" style="shape=umlActor;verticalLabelPosition=bottom;verticalAlign=top;html=1;" parent="1" vertex="1">
          <mxGeometry x="-620" y="1040" width="110" height="180" as="geometry" />
        </mxCell>
        <mxCell id="k-KtFEmayB6VyQOIX7gF-67" style="edgeStyle=orthogonalEdgeStyle;rounded=0;orthogonalLoop=1;jettySize=auto;html=1;" parent="1" source="k-KtFEmayB6VyQOIX7gF-55" edge="1">
          <mxGeometry relative="1" as="geometry">
            <mxPoint x="-460" y="810" as="targetPoint" />
            <Array as="points">
              <mxPoint x="-375" y="950" />
              <mxPoint x="-459" y="950" />
              <mxPoint x="-459" y="810" />
            </Array>
          </mxGeometry>
        </mxCell>
        <mxCell id="k-KtFEmayB6VyQOIX7gF-55" value="&lt;h1&gt;Staff&lt;/h1&gt;" style="shape=umlActor;verticalLabelPosition=bottom;verticalAlign=top;html=1;" parent="1" vertex="1">
          <mxGeometry x="-430" y="1040" width="110" height="180" as="geometry" />
        </mxCell>
        <mxCell id="k-KtFEmayB6VyQOIX7gF-58" value="&lt;h1&gt;&lt;font face=&quot;Verdana&quot;&gt;User&lt;/font&gt;&lt;/h1&gt;" style="shape=umlActor;verticalLabelPosition=bottom;verticalAlign=top;html=1;" parent="1" vertex="1">
          <mxGeometry x="-540" y="500" width="170" height="229" as="geometry" />
        </mxCell>
        <mxCell id="k-KtFEmayB6VyQOIX7gF-69" style="rounded=0;orthogonalLoop=1;jettySize=auto;html=1;entryX=0.083;entryY=0.77;entryDx=0;entryDy=0;entryPerimeter=0;endArrow=block;endFill=1;" parent="1" source="k-KtFEmayB6VyQOIX7gF-46" target="k-KtFEmayB6VyQOIX7gF-51" edge="1">
          <mxGeometry relative="1" as="geometry" />
        </mxCell>
        <mxCell id="k-KtFEmayB6VyQOIX7gF-71" style="rounded=0;orthogonalLoop=1;jettySize=auto;html=1;entryX=0.953;entryY=0.715;entryDx=0;entryDy=0;entryPerimeter=0;" parent="1" source="k-KtFEmayB6VyQOIX7gF-47" target="k-KtFEmayB6VyQOIX7gF-36" edge="1">
          <mxGeometry relative="1" as="geometry" />
        </mxCell>
        <mxCell id="k-KtFEmayB6VyQOIX7gF-72" style="rounded=0;orthogonalLoop=1;jettySize=auto;html=1;entryX=0.357;entryY=0.037;entryDx=0;entryDy=0;entryPerimeter=0;" parent="1" source="k-KtFEmayB6VyQOIX7gF-40" target="k-KtFEmayB6VyQOIX7gF-41" edge="1">
          <mxGeometry relative="1" as="geometry" />
        </mxCell>
        <mxCell id="k-KtFEmayB6VyQOIX7gF-76" style="rounded=0;orthogonalLoop=1;jettySize=auto;html=1;endArrow=none;startFill=0;" parent="1" source="k-KtFEmayB6VyQOIX7gF-45" edge="1">
          <mxGeometry relative="1" as="geometry">
            <mxPoint x="-380" y="620" as="targetPoint" />
          </mxGeometry>
        </mxCell>
        <mxCell id="k-KtFEmayB6VyQOIX7gF-80" style="rounded=0;orthogonalLoop=1;jettySize=auto;html=1;endArrow=none;startFill=0;" parent="1" source="k-KtFEmayB6VyQOIX7gF-36" edge="1">
          <mxGeometry relative="1" as="geometry">
            <mxPoint x="-380" y="620" as="targetPoint" />
          </mxGeometry>
        </mxCell>
        <mxCell id="k-KtFEmayB6VyQOIX7gF-90" style="rounded=0;orthogonalLoop=1;jettySize=auto;html=1;entryX=0.968;entryY=0.364;entryDx=0;entryDy=0;entryPerimeter=0;" parent="1" source="k-KtFEmayB6VyQOIX7gF-20" target="k-KtFEmayB6VyQOIX7gF-51" edge="1">
          <mxGeometry relative="1" as="geometry" />
        </mxCell>
        <mxCell id="k-KtFEmayB6VyQOIX7gF-103" value="&lt;h1&gt;&lt;font style=&quot;font-size: 19px;&quot;&gt;&amp;lt;&amp;lt;include&amp;gt;&amp;gt;&lt;/font&gt;&lt;/h1&gt;" style="text;html=1;align=center;" parent="1" vertex="1">
          <mxGeometry x="550" y="1000" width="310" height="60" as="geometry" />
        </mxCell>
        <mxCell id="k-KtFEmayB6VyQOIX7gF-104" value="&lt;h1&gt;&lt;font style=&quot;font-size: 19px;&quot;&gt;&amp;lt;&amp;lt;include&amp;gt;&amp;gt;&lt;/font&gt;&lt;/h1&gt;" style="text;html=1;align=center;" parent="1" vertex="1">
          <mxGeometry x="-40" y="990" width="310" height="70" as="geometry" />
        </mxCell>
        <mxCell id="k-KtFEmayB6VyQOIX7gF-105" value="&lt;h1&gt;&lt;font style=&quot;font-size: 19px;&quot;&gt;&amp;lt;&amp;lt;include&amp;gt;&amp;gt;&lt;/font&gt;&lt;/h1&gt;" style="text;html=1;align=center;" parent="1" vertex="1">
          <mxGeometry x="-310" y="1240" width="310" height="60" as="geometry" />
        </mxCell>
        <mxCell id="k-KtFEmayB6VyQOIX7gF-106" value="&lt;h1&gt;&lt;font style=&quot;font-size: 19px;&quot;&gt;&amp;lt;&amp;lt;include&amp;gt;&amp;gt;&lt;/font&gt;&lt;/h1&gt;" style="text;html=1;align=center;" parent="1" vertex="1">
          <mxGeometry x="-10" y="1250" width="310" height="60" as="geometry" />
        </mxCell>
        <mxCell id="k-KtFEmayB6VyQOIX7gF-110" value="&lt;h1&gt;&lt;font style=&quot;font-size: 19px;&quot;&gt;&amp;lt;&amp;lt;include&amp;gt;&amp;gt;&lt;/font&gt;&lt;/h1&gt;" style="text;html=1;align=center;" parent="1" vertex="1">
          <mxGeometry x="510" y="524" width="310" height="60" as="geometry" />
        </mxCell>
        <mxCell id="k-KtFEmayB6VyQOIX7gF-111" value="&lt;h1&gt;&lt;font style=&quot;font-size: 19px;&quot;&gt;&amp;lt;&amp;lt;exclude&lt;/font&gt;&lt;span style=&quot;color: rgba(0, 0, 0, 0); font-family: monospace; font-size: 0px; text-align: start; background-color: transparent; font-weight: normal;&quot;&gt;%3CmxGraphModel%3E%3Croot%3E%3CmxCell%20id%3D%220%22%2F%3E%3CmxCell%20id%3D%221%22%20parent%3D%220%22%2F%3E%3CmxCell%20id%3D%222%22%20value%3D%22%26lt%3Bh1%26gt%3B%26lt%3Bfont%20style%3D%26quot%3Bfont-size%3A%2019px%3B%26quot%3B%26gt%3B%26amp%3Blt%3B%26amp%3Blt%3Binclude%26amp%3Bgt%3B%26amp%3Bgt%3B%26lt%3B%2Ffont%26gt%3B%26lt%3B%2Fh1%26gt%3B%22%20style%3D%22text%3Bhtml%3D1%3Balign%3Dcenter%3B%22%20vertex%3D%221%22%20parent%3D%221%22%3E%3CmxGeometry%20x%3D%22510%22%20y%3D%22524%22%20width%3D%22310%22%20height%3D%2260%22%20as%3D%22geometry%22%2F%3E%3C%2FmxCell%3E%3C%2Froot%3E%3C%2FmxGraphModel%3E&lt;/span&gt;&lt;span style=&quot;font-size: 19px; background-color: transparent; color: light-dark(rgb(0, 0, 0), rgb(255, 255, 255)); font-weight: normal;&quot;&gt;&amp;gt;&amp;gt;&lt;/span&gt;&lt;/h1&gt;" style="text;html=1;align=center;rotation=-45;" parent="1" vertex="1">
          <mxGeometry x="60" y="750" width="310" height="56" as="geometry" />
        </mxCell>
        <mxCell id="k-KtFEmayB6VyQOIX7gF-112" value="&lt;h1&gt;&lt;font style=&quot;font-size: 19px;&quot;&gt;&amp;lt;&amp;lt;exclude&lt;/font&gt;&lt;span style=&quot;color: rgba(0, 0, 0, 0); font-family: monospace; font-size: 0px; text-align: start; background-color: transparent; font-weight: normal;&quot;&gt;%3CmxGraphModel%3E%3Croot%3E%3CmxCell%20id%3D%220%22%2F%3E%3CmxCell%20id%3D%221%22%20parent%3D%220%22%2F%3E%3CmxCell%20id%3D%222%22%20value%3D%22%26lt%3Bh1%26gt%3B%26lt%3Bfont%20style%3D%26quot%3Bfont-size%3A%2019px%3B%26quot%3B%26gt%3B%26amp%3Blt%3B%26amp%3Blt%3Binclude%26amp%3Bgt%3B%26amp%3Bgt%3B%26lt%3B%2Ffont%26gt%3B%26lt%3B%2Fh1%26gt%3B%22%20style%3D%22text%3Bhtml%3D1%3Balign%3Dcenter%3B%22%20vertex%3D%221%22%20parent%3D%221%22%3E%3CmxGeometry%20x%3D%22510%22%20y%3D%22524%22%20width%3D%22310%22%20height%3D%2260%22%20as%3D%22geometry%22%2F%3E%3C%2FmxCell%3E%3C%2Froot%3E%3C%2FmxGraphModel%3E&lt;/span&gt;&lt;span style=&quot;font-size: 19px; background-color: transparent; color: light-dark(rgb(0, 0, 0), rgb(255, 255, 255)); font-weight: normal;&quot;&gt;&amp;gt;&amp;gt;&lt;/span&gt;&lt;/h1&gt;" style="text;html=1;align=center;rotation=15;" parent="1" vertex="1">
          <mxGeometry x="330" y="687" width="310" height="56" as="geometry" />
        </mxCell>
        <mxCell id="k-KtFEmayB6VyQOIX7gF-113" value="&lt;h1&gt;&lt;font style=&quot;font-size: 19px;&quot;&gt;&amp;lt;&amp;lt;exclude&lt;/font&gt;&lt;span style=&quot;color: rgba(0, 0, 0, 0); font-family: monospace; font-size: 0px; text-align: start; background-color: transparent; font-weight: normal;&quot;&gt;%3CmxGraphModel%3E%3Croot%3E%3CmxCell%20id%3D%220%22%2F%3E%3CmxCell%20id%3D%221%22%20parent%3D%220%22%2F%3E%3CmxCell%20id%3D%222%22%20value%3D%22%26lt%3Bh1%26gt%3B%26lt%3Bfont%20style%3D%26quot%3Bfont-size%3A%2019px%3B%26quot%3B%26gt%3B%26amp%3Blt%3B%26amp%3Blt%3Binclude%26amp%3Bgt%3B%26amp%3Bgt%3B%26lt%3B%2Ffont%26gt%3B%26lt%3B%2Fh1%26gt%3B%22%20style%3D%22text%3Bhtml%3D1%3Balign%3Dcenter%3B%22%20vertex%3D%221%22%20parent%3D%221%22%3E%3CmxGeometry%20x%3D%22510%22%20y%3D%22524%22%20width%3D%22310%22%20height%3D%2260%22%20as%3D%22geometry%22%2F%3E%3C%2FmxCell%3E%3C%2Froot%3E%3C%2FmxGraphModel%3E&lt;/span&gt;&lt;span style=&quot;font-size: 19px; background-color: transparent; color: light-dark(rgb(0, 0, 0), rgb(255, 255, 255)); font-weight: normal;&quot;&gt;&amp;gt;&amp;gt;&lt;/span&gt;&lt;/h1&gt;" style="text;html=1;align=center;rotation=15;" parent="1" vertex="1">
          <mxGeometry x="398.89" y="810" width="310" height="56" as="geometry" />
        </mxCell>
        <mxCell id="k-KtFEmayB6VyQOIX7gF-114" value="&lt;h1&gt;&lt;font style=&quot;font-size: 19px;&quot;&gt;&amp;lt;&amp;lt;exclude&lt;/font&gt;&lt;span style=&quot;color: rgba(0, 0, 0, 0); font-family: monospace; font-size: 0px; text-align: start; background-color: transparent; font-weight: normal;&quot;&gt;%3CmxGraphModel%3E%3Croot%3E%3CmxCell%20id%3D%220%22%2F%3E%3CmxCell%20id%3D%221%22%20parent%3D%220%22%2F%3E%3CmxCell%20id%3D%222%22%20value%3D%22%26lt%3Bh1%26gt%3B%26lt%3Bfont%20style%3D%26quot%3Bfont-size%3A%2019px%3B%26quot%3B%26gt%3B%26amp%3Blt%3B%26amp%3Blt%3Binclude%26amp%3Bgt%3B%26amp%3Bgt%3B%26lt%3B%2Ffont%26gt%3B%26lt%3B%2Fh1%26gt%3B%22%20style%3D%22text%3Bhtml%3D1%3Balign%3Dcenter%3B%22%20vertex%3D%221%22%20parent%3D%221%22%3E%3CmxGeometry%20x%3D%22510%22%20y%3D%22524%22%20width%3D%22310%22%20height%3D%2260%22%20as%3D%22geometry%22%2F%3E%3C%2FmxCell%3E%3C%2Froot%3E%3C%2FmxGraphModel%3E&lt;/span&gt;&lt;span style=&quot;font-size: 19px; background-color: transparent; color: light-dark(rgb(0, 0, 0), rgb(255, 255, 255)); font-weight: normal;&quot;&gt;&amp;gt;&amp;gt;&lt;/span&gt;&lt;/h1&gt;" style="text;html=1;align=center;" parent="1" vertex="1">
          <mxGeometry x="-30" y="400" width="310" height="56" as="geometry" />
        </mxCell>
      </root>
    </mxGraphModel>
  </diagram>
</mxfile>
